PathFileType        4      (X/Y/Z)      Static.trc         
DataRate	CameraRate	NumFrames	NumMarkers	Units	OrigDataRate	OrigDataStartFrame	OrigNumFrames
100.0	100.0	4	37	mm	100.0	201	267
Frame#	Time	T2			T10			MANU			LASI			RASI			SACR			LTHI			LKAX			LKD1			LKD2			LKNE			LTIB			LANK			LMED			LHEE			LTOE			LD1M			LD5M			RTHI			RKAX			RKD1			RKD2			RKNE			RTIB			RANK			RMED			RHEE			RTOE			RD1M			RD5M			RHJC			LHJC			RKJC			LKJC			MASI			RAJC			LAJC			
		X1	Y1	Z1	X2	Y2	Z2	X3	Y3	Z3	X4	Y4	Z4	X5	Y5	Z5	X6	Y6	Z6	X7	Y7	Z7	X8	Y8	Z8	X9	Y9	Z9	X10	Y10	Z10	X11	Y11	Z11	X12	Y12	Z12	X13	Y13	Z13	X14	Y14	Z14	X15	Y15	Z15	X16	Y16	Z16	X17	Y17	Z17	X18	Y18	Z18	X19	Y19	Z19	X20	Y20	Z20	X21	Y21	Z21	X22	Y22	Z22	X23	Y23	Z23	X24	Y24	Z24	X25	Y25	Z25	X26	Y26	Z26	X27	Y27	Z27	X28	Y28	Z28	X29	Y29	Z29	X30	Y30	Z30	X31	Y31	Z31	X32	Y32	Z32	X33	Y33	Z33	X34	Y34	Z34	X35	Y35	Z35	X36	Y36	Z36	X37	Y37	Z37	
201	2.0	271.21025	1103.77365	-2.00217	282.5438	919.82913	-0.15075	385.89526	1088.60516	2.90405	429.25233	723.00344	-75.9779	430.56346	737.12278	96.01218	292.15503	770.37052	4.17	388.74433	431.96237	-156.77289	384.26296	381.85047	-217.7182	475.71738	392.78036	-123.10653	407.55954	280.50957	-138.07278	385.0866	369.8919	-125.5548	318.71394	159.58255	-183.94408	295.02471	68.51466	-146.15136	316.48474	71.68298	-72.06369	245.53969	20.31731	-109.87811	421.76444	30.74244	-135.74156	416.94275	16.9519	-85.42904	381.54927	16.9413	-176.66534	401.93096	447.61775	168.11786	406.52962	355.94715	227.80325	479.9583	414.17802	122.94909	453.01926	284.97059	121.19502	399.1792	361.93791	129.86209	307.37504	148.44387	156.35037	293.5112	62.04	112.09039	321.67313	69.42059	39.48709	250.87056	19.44703	68.43494	423.71815	28.56642	108.15119	414.0295	14.00629	52.68402	384.03161	15.39011	147.46035	370.09638	687.96964	78.39602	369.12011	677.45636	-49.66807	395.63094	364.82982	82.58316	385.50311	363.8444	-78.94735	429.9079	730.06311	10.01714	305.21512	57.65461	75.60529	303.60152	62.16769	-109.92185	
202	2.01	271.14129	1103.70831	-2.04954	282.61913	919.7815	-0.15199	385.86078	1088.65034	2.87864	429.33339	723.00462	-75.91888	430.59506	737.117	96.05568	292.22356	770.35955	4.20166	388.80696	431.9604	-156.7479	384.29892	381.84855	-217.69583	475.75576	392.76733	-123.08403	407.58634	280.50195	-138.05401	385.12194	369.88683	-125.53241	318.7128	159.58909	-183.92695	295.02228	68.52107	-146.14044	316.4837	71.68539	-72.05286	245.54359	20.31502	-109.87594	421.76003	30.74619	-135.74252	416.94408	16.95235	-85.42754	381.55038	16.94554	-176.66567	401.97312	447.59976	168.15291	406.54344	355.93542	227.83091	479.99977	414.15708	122.98875	453.05626	284.95196	121.23651	399.21664	361.92102	129.88662	307.38842	148.43582	156.36022	293.50971	62.04063	112.09569	321.67559	69.42021	39.48853	250.88046	19.44422	68.43732	423.7186	28.56612	108.15389	414.02568	14.01027	52.68582	384.03202	15.39458	147.46532	370.13983	687.96554	78.42323	369.20037	677.45732	-49.63068	395.67983	364.8104	82.60669	385.53814	363.83777	-78.92516	429.96422	730.06081	10.0684	305.2143	57.65526	75.60812	303.59879	62.17239	-109.91128	
203	2.02	271.07714	1103.64191	-2.09376	282.70065	919.73048	-0.14711	385.82742	1088.6921	2.85184	429.42302	723.00582	-75.85593	430.6326	737.11155	96.10071	292.30223	770.34737	4.23566	388.87443	431.95889	-156.72321	384.33723	381.84853	-217.67165	475.79773	392.75189	-123.05995	407.61326	280.49341	-138.0351	385.1599	369.88179	-125.50806	318.71343	159.59654	-183.91063	295.02034	68.52444	-146.12997	316.48398	71.68598	-72.04118	245.54649	20.31229	-109.87366	421.75631	30.74882	-135.74132	416.94484	16.95218	-85.42476	381.54981	16.94876	-176.66548	402.01704	447.57982	168.18842	406.55683	355.91902	227.85934	480.04111	414.13245	123.03067	453.09376	284.93108	121.27768	399.25445	361.90092	129.9121	307.40325	148.42692	156.36921	293.50662	62.04167	112.10023	321.67546	69.41693	39.49055	250.89137	19.43969	68.43864	423.71761	28.56637	108.15735	414.02232	14.01077	52.68816	384.0311	15.39836	147.47001	370.19064	687.96194	78.45157	369.28996	677.45854	-49.59058	395.72946	364.7885	82.63117	385.57592	363.83023	-78.90113	430.02781	730.05869	10.12239	305.2113	57.6547	75.61083	303.59692	62.17463	-109.90056	
204	2.03	271.02022	1103.5733	-2.13704	282.78588	919.67571	-0.13702	385.7968	1088.73046	2.82375	429.51934	723.00554	-75.79159	430.67498	737.10443	96.14618	292.3876	770.33392	4.27032	388.94577	431.95542	-156.69899	384.37895	381.84768	-217.64674	475.84416	392.7334	-123.03591	407.64085	280.48289	-138.01716	385.20134	369.8755	-125.48338	318.71546	159.60384	-183.89647	295.01956	68.52401	-146.12034	316.48509	71.68209	-72.03125	245.54739	20.30882	-109.87185	421.75313	30.7496	-135.73824	416.94453	16.95174	-85.42128	381.54766	16.94977	-176.66544	402.06486	447.55677	168.22201	406.57489	355.89477	227.8865	480.08633	414.10162	123.07164	453.13296	284.9056	121.31458	399.29553	361.87626	129.93666	307.42023	148.41685	156.37612	293.50304	62.04151	112.10272	321.67234	69.41167	39.49142	250.90217	19.43363	68.43886	423.71488	28.56614	108.16019	414.02062	14.00734	52.68966	384.02887	15.40041	147.47243	370.2466	687.95709	78.47981	369.38608	677.45865	-49.54996	395.78168	364.76362	82.65489	385.61722	363.82123	-78.87681	430.09716	730.05498	10.1773	305.20645	57.65259	75.61191	303.59597	62.17266	-109.89117	
